<?xml version="1.0" encoding="utf-8"?>
<!-- Generator: Adobe Illustrator 16.0.0, SVG Export Plug-In . SVG Version: 6.00 Build 0)  -->
<!DOCTYPE svg PUBLIC "-//W3C//DTD SVG 1.1//EN" "http://www.w3.org/Graphics/SVG/1.1/DTD/svg11.dtd">
<svg version="1.1" xmlns="http://www.w3.org/2000/svg" xmlns:xlink="http://www.w3.org/1999/xlink" x="0px" y="0px" width="576px"
	 height="288px" viewBox="0 0 576 288" enable-background="new 0 0 576 288" xml:space="preserve">
<g id="Layer_1">
	<g>
		<rect x="65.4" y="36" fill="none" width="458.9" height="163.3"/>
	</g>
	<path fill="#00539F" d="M218.5,166.1V72.2h26v93.9H218.5z"/>
	<path fill="#00539F" d="M258.1,166.1V72.2h71.5v18.2h-45.5v19.4H326V128h-41.9v19.9h45.5v18.2H258.1z"/>
	<path fill="#00539F" d="M344.2,166.1V72.2h71.5v18.2h-45.5v19.4h41.9V128h-41.9v19.9h45.5v18.2H344.2z"/>
	<path fill="#00539F" d="M430.3,166.1V72.2h71.5v18.2h-45.5v19.4h41.9V128h-41.9v19.9h45.5v18.2H430.3z"/>
	<path fill="#00539F" d="M147.2,63.8c3.9,4.9,7.9,10,12.1,14.7l10.3,10.8c9.3,9.3,19.2,17.5,29.9,24.7l0.3,0.1
		c1.4,0.9,2.3,2.4,2.4,4c-0.1,3.4-4,4.1-6.1,6c-20.7,15-39.1,33.5-53.7,54.2l-1.2,1.2c-1.2,0.7-2.7,0.4-3.9,0
		c-1.6-0.5-1.8-2.2-2.8-3.3c-3.2-5-7.3-9.7-10.9-14.4c-2.1-2.1-3.8-4.3-5.9-6.6c-12-13.1-25.5-24.7-39.5-34.4c-1-1-1.8-2.3-1.4-3.9
		c0.4-1.8,2.5-2.9,3.9-3.9c17.6-12.1,33.7-27.8,47.3-44.7l8.5-11.1c1.1-0.9,2.6-1.6,4-1c0.6,0.2,1.4,0.7,1.9,1.1L147.2,63.8z"/>
	<path fill="#FFFFFF" d="M135.1,73.3c-4,2.9-7.7,5.8-11.5,9c-0.3,0.2-0.7,0.6-0.9,0.8c-8.8,7.9-17.6,16.5-24.7,25.6
		c-2,2.6-4.1,5.2-4.9,8.3c0,1.7,0.2,3.2,1.1,4.5c6,9,14.1,17.6,22,25c6.9,6.1,13.5,12.9,21.4,17c2.6,1.2,5.5-0.2,7.7-1.7
		c10.7-7.5,20.2-16.9,29.3-26.7c4.2-5.1,9-9.8,11.3-15.7c0.6-2.3-0.4-4.3-1.5-6.1c-7.1-10.1-15.6-19.6-24.9-28.2l-0.6-0.3
		c-3.3-3.2-7.1-6.4-10.8-9.2C144.5,72.7,139.2,70,135.1,73.3z"/>
	<path fill="#00539F" d="M136.6,75.8c-13.2,9.1-25.8,21.4-36,34c-2.1,3.1-5.7,6-4.1,10c1.2,3,3.8,5.2,5.5,7.8
		c10,12,21.8,23.2,34.1,32.2c5.4,3.5,9.3-2.1,13.5-4.7c8.6-6.8,16.6-15.1,24.1-23.1v-0.2c3-3.7,6.2-7.3,8.6-11.2
		c1-1.9,0.5-4.6-0.6-6.3c-9.1-13.2-21.1-24.9-33.8-35.1C144.7,76.9,140.9,72.9,136.6,75.8z"/>
	<path fill="#FFFFFF" d="M139.3,84.1l-1.2,3.7l-5.8,16.5c1.4,0.1,3.2,0,4.6,0.1v0.1l-0.8,18.7l0.1,0.2c1.8,0.2,4.1,0.3,6-0.1v-0.3
		l-0.7-18.1l0.1-0.6l5.1-0.1c-2.5-6.7-5-13.4-7.3-20.2H139.3z"/>
	<path fill="#FFFFFF" d="M119.7,110c-3.2,1.6-8,4.1-7.5,8.5c0.7,2.4,3.3,4,5.4,5c11.5,5,26.7,5.2,38.8,1.4c3-1.2,7-2.8,7.5-6.5
		c0-3-3.2-4.9-5.5-6.1v-0.1c0.8-0.3,1.7-0.6,2.6-0.7v-0.1c-4.1-0.7-8-1.8-11.9-2.8c0.8,1.7,1.3,3.5,1.9,5.3c1.2-0.4,2.4-0.7,3.7-0.8
		c2.1,0.8,5,2,5.3,4.6c0.2,2.4-2.4,3.6-4.1,4.6c-8.9,3.2-18.9,3.5-28.1,1.1c-2.6-0.8-6.2-1.8-6.6-5.1c1.8-4.3,6.5-5.2,10.4-6.2
		c-2-1.3-4.1-2.4-6-3.9C123.5,108.2,121.6,109.1,119.7,110z"/>
	<path fill="#FFFFFF" d="M136.1,128.6c-0.3,6.6-0.4,12.8-0.9,19.4c2.6,0.2,5.6,0.5,8.4,0.1l-0.8-18.5l-0.1-0.9
		C140.4,128.7,138.4,128.8,136.1,128.6z"/>
	<path fill="#00539F" d="M164.9,169v-1.7h1.1c0.6,0,1.4,0.1,1.4,0.8c0,0.8-0.4,0.9-1.1,0.9H164.9z M164.9,170.2h0.7l1.6,3h1.8
		l-1.8-3.1c0.9-0.1,1.7-0.5,1.7-1.8c0-1.6-1.1-2.1-2.9-2.1h-2.6v7.1h1.5V170.2z M172.6,169.6c0-4.1-3.1-6.6-6.6-6.6
		c-3.5,0-6.6,2.4-6.6,6.6c0,4.1,3.1,6.6,6.6,6.6C169.5,176.2,172.6,173.8,172.6,169.6z M170.7,169.6c0,3-2.2,5-4.7,5v0
		c-2.6,0-4.7-2-4.7-5c0-3,2.1-5,4.7-5C168.5,164.6,170.7,166.6,170.7,169.6z"/>
</g>
<g id="Layer_2">
	<g>
		<rect x="-47" y="221" fill="none" width="663" height="39.5"/>
		<path fill="#00539F" d="M17.3,222.4v26.7h-6v-26.7H17.3z"/>
		<path fill="#00539F" d="M38.4,237.8h-9.8v6.3h11v4.9h-17v-26.7H39v4.9H28.5v5.5h9.8V237.8z"/>
		<path fill="#00539F" d="M59.5,237.8h-9.8v6.3h11v4.9h-17v-26.7h16.4v4.9H49.7v5.5h9.8V237.8z"/>
		<path fill="#00539F" d="M80.7,237.8h-9.8v6.3h11v4.9h-17v-26.7h16.4v4.9H70.8v5.5h9.8V237.8z"/>
		<path fill="#00539F" d="M94.1,242.9c1.6,0.8,4.1,1.7,6.7,1.7c2.8,0,4.2-1.1,4.2-2.9c0-1.6-1.3-2.6-4.5-3.7c-4.4-1.6-7.4-4-7.4-8
			c0-4.6,3.8-8,10.1-8c3,0,5.2,0.6,6.8,1.3l-1.3,4.8c-1-0.5-3-1.3-5.5-1.3c-2.6,0-3.9,1.2-3.9,2.6c0,1.7,1.5,2.5,4.9,3.8
			c4.7,1.7,6.9,4.2,6.9,8c0,4.5-3.4,8.3-10.7,8.3c-3,0-6.1-0.8-7.6-1.7L94.1,242.9z"/>
		<path fill="#00539F" d="M121.6,224.5v5.3h4.3v4.4h-4.3v7c0,2.3,0.6,3.4,2.4,3.4c0.8,0,1.2,0,1.8-0.2l0,4.6
			c-0.8,0.3-2.2,0.5-3.9,0.5c-1.9,0-3.6-0.7-4.6-1.7c-1.1-1.1-1.7-3-1.7-5.7v-8h-2.6v-4.4h2.6v-3.6L121.6,224.5z"/>
		<path fill="#00539F" d="M147.7,242.9c0,2.5,0.1,4.6,0.2,6.2h-5.2l-0.3-2.7h-0.1c-0.8,1.2-2.6,3.2-6.1,3.2c-4,0-6.8-2.5-6.8-8.4
			v-11.4h6v10.4c0,2.8,0.9,4.5,3,4.5c1.7,0,2.7-1.1,3-2.1c0.2-0.4,0.2-0.8,0.2-1.3v-11.5h6V242.9z"/>
		<path fill="#00539F" d="M171.3,221v22.3c0,2.2,0.1,4.5,0.2,5.8h-5.3l-0.2-2.8h-0.1c-1.2,2.1-3.6,3.2-6.1,3.2
			c-4.6,0-8.3-3.9-8.3-9.9c0-6.5,4-10.3,8.7-10.3c2.4,0,4.2,0.9,5.1,2.2h0.1V221H171.3z M165.3,238c0-0.4,0-0.8-0.1-1.1
			c-0.4-1.6-1.7-2.9-3.5-2.9c-2.8,0-4.2,2.5-4.2,5.5c0,3.2,1.6,5.3,4.1,5.3c1.7,0,3.2-1.2,3.5-2.9c0.1-0.4,0.1-0.9,0.1-1.3V238z"/>
		<path fill="#00539F" d="M180.8,241.3c0.2,2.5,2.7,3.7,5.5,3.7c2.1,0,3.7-0.3,5.3-0.8l0.8,4.1c-2,0.8-4.4,1.2-7,1.2
			c-6.6,0-10.3-3.8-10.3-9.9c0-4.9,3.1-10.3,9.8-10.3c6.3,0,8.6,4.9,8.6,9.7c0,1-0.1,1.9-0.2,2.4L180.8,241.3z M187.9,237.2
			c0-1.4-0.6-3.9-3.4-3.9c-2.6,0-3.6,2.3-3.8,3.9H187.9z"/>
		<path fill="#00539F" d="M197,235.9c0-2.4-0.1-4.4-0.2-6.2h5.2l0.3,2.7h0.1c0.8-1.3,2.7-3.1,6-3.1c4,0,6.9,2.7,6.9,8.4v11.4h-6
			v-10.7c0-2.5-0.9-4.2-3-4.2c-1.7,0-2.7,1.1-3.1,2.3c-0.2,0.4-0.2,0.9-0.2,1.5v11.2h-6V235.9z"/>
		<path fill="#00539F" d="M226.7,224.5v5.3h4.3v4.4h-4.3v7c0,2.3,0.6,3.4,2.4,3.4c0.8,0,1.2,0,1.8-0.2l0,4.6
			c-0.8,0.3-2.2,0.5-3.9,0.5c-1.9,0-3.6-0.7-4.6-1.7c-1.1-1.1-1.7-3-1.7-5.7v-8h-2.6v-4.4h2.6v-3.6L226.7,224.5z"/>
		<path fill="#00539F" d="M242.7,222.8c1.6-0.3,4.8-0.6,7.8-0.6c3.7,0,5.9,0.4,7.9,1.5c1.9,1,3.2,2.8,3.2,5.3c0,2.3-1.4,4.5-4.4,5.7
			v0.1c3,0.8,5.3,3.1,5.3,6.6c0,2.5-1.1,4.4-2.8,5.7c-1.9,1.5-5.2,2.4-10.5,2.4c-3,0-5.2-0.2-6.5-0.4V222.8z M248.7,233h2
			c3.2,0,4.9-1.3,4.9-3.3c0-2-1.5-3.1-4.3-3.1c-1.3,0-2.1,0.1-2.6,0.2V233z M248.7,244.8c0.6,0.1,1.3,0.1,2.3,0.1
			c2.7,0,5.1-1.1,5.1-3.9c0-2.7-2.4-3.8-5.4-3.8h-2.1V244.8z"/>
		<path fill="#00539F" d="M266.5,236.1c0-2.9,0-4.7-0.2-6.4h5.1l0.2,3.6h0.2c1-2.9,3.3-4,5.2-4c0.6,0,0.8,0,1.3,0.1v5.7
			c-0.5-0.1-1-0.2-1.7-0.2c-2.2,0-3.7,1.1-4.1,3c-0.1,0.4-0.1,0.8-0.1,1.3v9.8h-6L266.5,236.1z"/>
		<path fill="#00539F" d="M297.2,244.4c0,1.8,0.1,3.6,0.3,4.7h-5.4l-0.4-1.9h-0.1c-1.3,1.5-3.2,2.4-5.5,2.4c-3.9,0-6.3-2.9-6.3-5.9
			c0-5,4.5-7.4,11.4-7.4V236c0-1-0.6-2.5-3.5-2.5c-2,0-4.1,0.7-5.3,1.4l-1.1-3.8c1.3-0.8,4-1.7,7.5-1.7c6.5,0,8.5,3.8,8.5,8.4V244.4
			z M291.4,240c-3.2,0-5.6,0.8-5.6,3c0,1.5,1,2.3,2.4,2.3c1.5,0,2.7-1,3.1-2.2c0.1-0.3,0.1-0.7,0.1-1V240z"/>
		<path fill="#00539F" d="M302,235.9c0-2.4-0.1-4.4-0.2-6.2h5.2l0.3,2.7h0.1c0.8-1.3,2.7-3.1,6-3.1c4,0,6.9,2.7,6.9,8.4v11.4h-6
			v-10.7c0-2.5-0.9-4.2-3-4.2c-1.7,0-2.7,1.1-3.1,2.3c-0.2,0.4-0.2,0.9-0.2,1.5v11.2h-6V235.9z"/>
		<path fill="#00539F" d="M339.7,248.6c-1.1,0.5-3.1,0.9-5.4,0.9c-6.3,0-10.3-3.8-10.3-9.9c0-5.7,3.9-10.3,11.1-10.3
			c1.6,0,3.3,0.3,4.6,0.8l-1,4.5c-0.7-0.3-1.8-0.6-3.4-0.6c-3.2,0-5.2,2.3-5.2,5.4c0,3.6,2.4,5.5,5.3,5.5c1.4,0,2.5-0.2,3.4-0.6
			L339.7,248.6z"/>
		<path fill="#00539F" d="M343,221h6v11.1h0.1c0.6-0.9,1.4-1.5,2.4-2c0.9-0.5,2-0.8,3.1-0.8c3.8,0,6.8,2.7,6.8,8.5v11.3h-6v-10.7
			c0-2.5-0.9-4.3-3.1-4.3c-1.6,0-2.6,1-3,2.1c-0.2,0.4-0.2,0.9-0.2,1.3v11.5h-6V221z"/>
		<path fill="#00539F" d="M390.3,237.8h-9.8v6.3h11v4.9h-17v-26.7h16.4v4.9h-10.4v5.5h9.8V237.8z"/>
		<path fill="#00539F" d="M398.3,227.2c-2,0-3.3-1.4-3.3-3.2c0-1.8,1.3-3.2,3.4-3.2c2.1,0,3.3,1.4,3.4,3.2
			C401.7,225.8,400.4,227.2,398.3,227.2L398.3,227.2z M395.3,249.1v-19.4h6v19.4H395.3z"/>
		<path fill="#00539F" d="M406.1,235.9c0-2.4-0.1-4.4-0.2-6.2h5.2l0.3,2.7h0.1c0.8-1.3,2.7-3.1,6-3.1c4,0,6.9,2.7,6.9,8.4v11.4h-6
			v-10.7c0-2.5-0.9-4.2-3-4.2c-1.7,0-2.7,1.1-3.1,2.3c-0.2,0.4-0.2,0.9-0.2,1.5v11.2h-6V235.9z"/>
		<path fill="#00539F" d="M448.1,221v22.3c0,2.2,0.1,4.5,0.2,5.8h-5.3l-0.2-2.8h-0.1c-1.2,2.1-3.6,3.2-6.1,3.2
			c-4.6,0-8.3-3.9-8.3-9.9c0-6.5,4-10.3,8.7-10.3c2.4,0,4.2,0.9,5.1,2.2h0.1V221H448.1z M442.1,238c0-0.4,0-0.8-0.1-1.1
			c-0.4-1.6-1.7-2.9-3.5-2.9c-2.8,0-4.2,2.5-4.2,5.5c0,3.2,1.6,5.3,4.1,5.3c1.7,0,3.2-1.2,3.5-2.9c0.1-0.4,0.1-0.9,0.1-1.3V238z"/>
		<path fill="#00539F" d="M452.9,221h6v11.1h0.1c0.6-0.9,1.4-1.5,2.4-2c0.9-0.5,2-0.8,3.1-0.8c3.8,0,6.8,2.7,6.8,8.5v11.3h-6v-10.7
			c0-2.5-0.9-4.3-3.1-4.3c-1.6,0-2.6,1-3,2.1c-0.2,0.4-0.2,0.9-0.2,1.3v11.5h-6V221z"/>
		<path fill="#00539F" d="M485.1,249.6c-5.7,0-10-3.7-10-10c0-6.3,4.1-10.3,10.4-10.3c5.9,0,9.9,4.1,9.9,9.9
			C495.3,246.3,490.2,249.6,485.1,249.6L485.1,249.6z M485.2,245.2c2.4,0,3.8-2.3,3.8-5.8c0-2.9-1.1-5.8-3.8-5.8c-2.9,0-4,2.9-4,5.8
			C481.2,242.7,482.6,245.2,485.2,245.2L485.2,245.2z"/>
		<path fill="#00539F" d="M503,229.8l2.6,9c0.5,1.6,0.8,3.2,1.1,4.7h0.1c0.3-1.6,0.6-3,1.1-4.7l2.5-9h6.3l-7.2,19.4h-6l-7-19.4H503z
			"/>
		<path fill="#00539F" d="M523.3,241.3c0.2,2.5,2.7,3.7,5.5,3.7c2.1,0,3.7-0.3,5.3-0.8l0.8,4.1c-2,0.8-4.4,1.2-7,1.2
			c-6.6,0-10.3-3.8-10.3-9.9c0-4.9,3.1-10.3,9.8-10.3c6.3,0,8.6,4.9,8.6,9.7c0,1-0.1,1.9-0.2,2.4L523.3,241.3z M530.4,237.2
			c0-1.4-0.6-3.9-3.4-3.9c-2.6,0-3.6,2.3-3.8,3.9H530.4z"/>
		<path fill="#00539F" d="M539.6,235.9c0-2.4-0.1-4.4-0.2-6.2h5.2l0.3,2.7h0.1c0.8-1.3,2.7-3.1,6-3.1c4,0,6.9,2.7,6.9,8.4v11.4h-6
			v-10.7c0-2.5-0.9-4.2-3-4.2c-1.7,0-2.7,1.1-3.1,2.3c-0.2,0.4-0.2,0.9-0.2,1.5v11.2h-6V235.9z"/>
	</g>
</g>
<g id="Layer_3">
	<line fill="#00539F" stroke="#00539F" stroke-width="4" x1="10.5" y1="196.3" x2="562.5" y2="196.3"/>
</g>
</svg>
