<?xml version="1.0" encoding="UTF-8" standalone="no"?>
<!-- Created with Inkscape (http://www.inkscape.org/) -->

<svg
   xmlns:dc="http://purl.org/dc/elements/1.1/"
   xmlns:cc="http://creativecommons.org/ns#"
   xmlns:rdf="http://www.w3.org/1999/02/22-rdf-syntax-ns#"
   xmlns:svg="http://www.w3.org/2000/svg"
   xmlns="http://www.w3.org/2000/svg"
   xmlns:sodipodi="http://sodipodi.sourceforge.net/DTD/sodipodi-0.dtd"
   xmlns:inkscape="http://www.inkscape.org/namespaces/inkscape"
   width="240"
   height="190"
   viewBox="0 0 240 190"
   id="svg2"
   version="1.1"
   inkscape:version="0.91 r13725"
   sodipodi:docname="sblogo.svg"
   inkscape:export-filename="D:\Dropbox\marketplace\sblogo.png"
   inkscape:export-xdpi="90"
   inkscape:export-ydpi="90">
  <defs
     id="defs4">
    <clipPath
       id="clipPath3352"
       clipPathUnits="userSpaceOnUse">
      <path
         inkscape:connector-curvature="0"
         id="path3354"
         d="m 1717.64,135.59 c -2.15,2.371 -4.45,4.859 -6.9,7.469 -9.61,10.211 -18.43,18.8 -26.44,25.73 -8.04,6.949 -15.83,12.582 -23.37,16.902 -7.59,4.34 -15.37,7.34 -23.38,9 -5.47,1.118 -11.45,1.688 -17.93,1.688 -3.03,0 -6.17,-0.129 -9.42,-0.367 -10.23,-0.782 -24.16,-4.481 -41.8,-11.141 -17.66,-6.66 -40.02,-14.18 -67.07,-22.539 -8.3,-2.582 -17.13,-5.141 -26.48,-7.691 -5.35,4.57 -10.23,9.668 -14.65,15.3 L 1319,350.172 c 12.04,4.258 23.88,8.637 35.51,13.109 36.16,13.91 65.28,29.539 87.27,46.91 21.98,17.297 34.51,36.75 37.61,58.329 3.09,21.55 -8.33,45.949 -34.23,73.289 -33.87,35.73 -81.11,66.132 -141.67,91.25 -60.55,25.23 -129.25,45.441 -206.1,60.601 -18.13,3.61 -36.59,6.949 -55.37,10.012 L 880.797,909.441 c -15.074,19.231 -16.445,33.61 -4.117,43.141 12.32,9.52 32.406,14.988 60.285,16.457 l 435.735,22.902 c 49.09,2.579 95.67,3.868 139.79,3.868 15.08,0 29.88,-0.149 44.39,-0.45 56.94,-1.16 112.51,-4.66 166.79,-10.507 54.28,-5.801 106.48,-14.071 156.6,-24.801 50.13,-10.672 96.86,-24.09 140.25,-40.262 43.38,-16.098 82.93,-35.199 118.62,-57.309 35.68,-22.058 65.65,-47.269 89.82,-75.648 23.13,-27.16 35.49,-52.191 37.07,-75.184 1.58,-23.019 -5.37,-43.707 -20.85,-62.128 -15.49,-18.43 -38.66,-34.309 -69.44,-47.59 -30.81,-13.321 -67.88,-23.828 -111.14,-31.5 42.12,-3.95 81.98,-10.25 119.57,-18.93 37.54,-8.648 72.05,-19.25 103.53,-31.852 31.44,-12.558 59.55,-27.007 84.27,-43.367 24.73,-16.34 45.32,-34.222 61.77,-53.66 29.38,-34.73 42.08,-66.012 38.17,-93.922 -3.96,-27.961 -23.03,-52.551 -57.18,-73.769 -34.19,-21.301 -83.08,-39.418 -146.67,-54.348 -63.63,-14.973 -146.33,-27.262 -248.13,-36.762 l -302.29,-28.23 m 97.46,371.879 c -21.06,0 -44.1,-0.957 -69.12,-2.879 l -187.62,-14.379 173.69,-216.711 170.31,14.859 c 52.08,4.539 91.79,10.52 119.15,17.879 27.33,7.383 47.68,16.274 61.08,26.672 13.35,10.41 19.76,22.578 19.25,36.488 -0.55,13.911 -7.6,29.063 -21.15,45.461 -12.17,14.731 -28.4,28.332 -48.72,40.84 -20.32,12.512 -44.12,22.981 -71.42,31.371 -27.34,8.442 -57.81,14.391 -91.4,17.86 -16.28,1.699 -34.29,2.539 -54.05,2.539 m -242,360.113 c -19.79,0 -40.82,-0.652 -63.08,-1.973 l -241.15,-14.218 190.23,-237.352 198.73,14.043 c 61.15,4.316 108.58,10.578 142.29,18.77 33.69,8.16 58.67,18.136 74.98,29.949 16.26,11.789 24.57,25.551 24.96,41.289 0.36,15.73 -7.29,33.012 -22.95,51.851 -14.97,18.008 -34.84,33.618 -59.64,46.84 -24.79,13.25 -52.72,23.879 -83.82,31.93 -31.11,8.051 -64.52,13.578 -100.24,16.539 -18.63,1.551 -38.73,2.332 -60.31,2.332" />
    </clipPath>
    <clipPath
       id="clipPath3364"
       clipPathUnits="userSpaceOnUse">
      <path
         inkscape:connector-curvature="0"
         id="path3366"
         d="m 1176.68,0 c -19.57,0 -39.11,0.269531 -58.6,0.789063 C 1036.55,3.05859 961,10.4883 891.406,23.1484 821.848,35.8984 759.578,54.0586 704.586,77.6602 649.617,101.34 607.051,130.488 576.84,165.07 c -26.297,30.102 -37.754,56.731 -34.36,79.828 3.379,23.063 15.965,43.661 37.778,61.782 21.777,18.082 50.371,34.199 85.762,48.371 35.335,14.14 73.156,27.109 113.378,38.961 40.196,11.789 79.418,23.008 117.665,33.636 38.199,10.59 71.066,21.391 98.593,32.391 27.474,10.981 47.124,22.77 58.914,35.391 11.77,12.59 10.4,26.742 -4.11,42.461 -12.53,13.597 -30.36,25.57 -53.472,35.929 -23.144,10.379 -50.371,18.66 -81.691,24.86 -31.328,6.218 -66.391,10.468 -105.164,12.742 -19.168,1.129 -38.992,1.687 -59.481,1.687 -20.972,0 -42.636,-0.589 -65,-1.777 -67.238,-3.562 -123.714,-9.73 -169.429,-18.492 -45.75,-8.801 -83.817,-17.871 -114.129,-27.238 -30.356,-9.391 -54.59,-17.813 -72.731,-25.211 -18.133,-7.43 -33.672,-11.512 -46.566,-12.231 -2.184,-0.129 -4.356,-0.191 -6.512,-0.191 -6.945,0 -13.734,0.64 -20.371,1.902 -8.703,1.66 -17.242,4.809 -25.605,9.399 -8.375,4.621 -16.891,10.769 -25.543,18.492 -8.668,7.707 -18.024,17.347 -28.082,28.879 -14.93,17.121 -23.852,30.379 -26.727,39.757 -2.918,9.372 -0.484,16.793 7.27,22.211 7.714,5.422 22.39,11.973 44.019,19.602 21.582,7.629 50.082,15.289 85.508,22.961 35.398,7.66 77.734,14.75 127,21.308 49.269,6.52 104.672,11.239 166.266,14.141 39.726,1.879 79.214,2.809 118.472,2.809 50.66,0 100.938,-1.551 150.824,-4.66 67.664,-4.149 131.883,-11.18 192.704,-21.098 L 1319,350.172 c -25.47,-9.024 -51.85,-17.563 -79.15,-25.621 -40.26,-11.903 -80.01,-23.332 -119.25,-34.281 -39.27,-11.008 -73.19,-22.231 -101.75,-33.711 -28.592,-11.489 -48.62,-23.77 -60.084,-36.797 -11.496,-13.071 -10.196,-27.453 3.875,-43.153 9.488,-10.57 23.355,-20.23 41.609,-28.968 18.26,-8.731 40.38,-15.7 66.43,-20.891 26.02,-5.18 55.63,-8.52 88.82,-10 10.62,-0.48 21.59,-0.711 32.91,-0.711 24.03,0 49.63,1.07 76.79,3.191 51.09,4 95.81,10.11 134.11,18.282 26.55,5.648 50.39,11.359 71.54,17.129 12.9,-11 28.51,-18.891 46.83,-23.641 18.62,-4.828 37.84,-7.238 57.65,-7.238 7.77,0 15.64,0.367 23.6,1.109 l 114.71,10.719 c 5.4,-5.961 9.84,-11.168 13.34,-15.641 4.85,-6.23 8.02,-11.469 9.53,-15.719 1.47,-4.23 1.76,-7.7183 0.82,-10.4605 -0.95,-2.7187 -4.42,-6.2382 -10.38,-10.539 -6,-4.2813 -20.95,-10.2617 -44.82,-17.9414 C 1662.25,57.582 1633.65,50.0508 1600.39,42.6992 1567.13,35.3086 1530.21,28.5898 1489.71,22.5 1449.18,16.4102 1407.5,11.5391 1364.69,7.96094 1301.62,2.66016 1238.96,0 1176.68,0" />
    </clipPath>
    <clipPath
       id="clipPath3376"
       clipPathUnits="userSpaceOnUse">
      <path
         inkscape:connector-curvature="0"
         id="path3378"
         d="m 1579.33,123.762 c -19.81,0 -39.03,2.41 -57.65,7.238 -18.32,4.75 -33.93,12.641 -46.83,23.641 9.35,2.55 18.18,5.109 26.48,7.691 27.05,8.359 49.41,15.879 67.07,22.539 17.64,6.66 31.57,10.359 41.8,11.141 3.25,0.238 6.39,0.367 9.42,0.367 6.48,0 12.46,-0.57 17.93,-1.688 8.01,-1.66 15.79,-4.66 23.38,-9 7.54,-4.32 15.33,-9.953 23.37,-16.902 8.01,-6.93 16.83,-15.519 26.44,-25.73 2.45,-2.61 4.75,-5.098 6.9,-7.469 l -114.71,-10.719 c -7.96,-0.742 -15.83,-1.109 -23.6,-1.109 m -260.33,226.41 -276.98,353.5 c 18.78,-3.063 37.24,-6.402 55.37,-10.012 76.85,-15.16 145.55,-35.371 206.1,-60.601 60.56,-25.118 107.8,-55.52 141.67,-91.25 25.9,-27.34 37.32,-51.739 34.23,-73.289 -3.1,-21.579 -15.63,-41.032 -37.61,-58.329 -21.99,-17.371 -51.11,-33 -87.27,-46.91 -11.63,-4.472 -23.47,-8.851 -35.51,-13.109" />
    </clipPath>
    <clipPath
       id="clipPath3388"
       clipPathUnits="userSpaceOnUse">
      <path
         inkscape:connector-curvature="0"
         id="path3390"
         d="M 0,2052.57 0,0 l 2472.61,0 0,2052.57 -2472.61,0 z" />
    </clipPath>
  </defs>
  <sodipodi:namedview
     id="base"
     pagecolor="#ffffff"
     bordercolor="#666666"
     borderopacity="1.0"
     inkscape:pageopacity="0.0"
     inkscape:pageshadow="2"
     inkscape:zoom="0.59"
     inkscape:cx="155.55718"
     inkscape:cy="93.722211"
     inkscape:document-units="px"
     inkscape:current-layer="layer1"
     showgrid="false"
     inkscape:window-width="1600"
     inkscape:window-height="838"
     inkscape:window-x="-8"
     inkscape:window-y="-8"
     inkscape:window-maximized="1"
     units="px"
     inkscape:showpageshadow="false" />
  <metadata
     id="metadata7">
    <rdf:RDF>
      <cc:Work
         rdf:about="">
        <dc:format>image/svg+xml</dc:format>
        <dc:type
           rdf:resource="http://purl.org/dc/dcmitype/StillImage" />
        <dc:title></dc:title>
      </cc:Work>
    </rdf:RDF>
  </metadata>
  <g
     inkscape:label="Layer 1"
     inkscape:groupmode="layer"
     id="layer1"
     transform="translate(0,-862.36216)">
    <path
       inkscape:connector-curvature="0"
       id="path3392"
       style="fill:#2d89ef;fill-opacity:1;fill-rule:nonzero;stroke:none"
       d="m 198.4739,976.8629 c 0,-3.73234 -0.75858,-7.07094 -2.27948,-10.01706 -1.5209,-2.94357 -3.75055,-5.41311 -6.68771,-7.40353 -2.93841,-1.99168 -6.68771,-3.52591 -11.24666,-4.60522 -4.55896,-1.07675 -10.48684,-1.61705 -17.78241,-1.61705 l -23.71029,0 0,45.79339 28.87835,0 c 5.57039,0 10.25889,-0.47642 14.05802,-1.4311 3.80037,-0.95265 7.09004,-2.36353 9.87897,-4.23034 2.7852,-1.86681 4.96378,-4.18853 6.53699,-6.969 1.56823,-2.77791 2.35422,-5.95212 2.35422,-9.52009 z m -10.18416,-68.93945 c 0,-3.23537 -0.60661,-6.13944 -1.82109,-8.71093 -1.21696,-2.57148 -3.04179,-4.70843 -5.47323,-6.40831 -2.43144,-1.69989 -5.4969,-3.00729 -9.19514,-3.92094 -3.70072,-0.91111 -8.63834,-1.36857 -14.81784,-1.36857 l -20.21509,0 0,41.81272 22.3426,0 c 5.77468,0 10.3847,-0.56068 13.83007,-1.68076 3.44413,-1.1201 6.3078,-2.65304 8.58728,-4.60395 2.27947,-1.94837 3.97476,-4.23059 5.09207,-6.84413 1.11358,-2.61353 1.67037,-5.37105 1.67037,-8.27513 z m 51.67686,67.82064 c 0,5.72404 -0.96411,10.90905 -2.88858,15.55505 -1.92448,4.64599 -4.58512,8.75306 -7.97942,12.31946 -3.3943,3.567 -7.44629,6.6378 -12.15845,9.2082 -4.71092,2.5724 -9.90514,4.688 -15.57767,6.3471 -5.67627,1.6589 -11.72872,2.8825 -18.16232,3.6699 -6.4361,0.7901 -13.60337,1.1828 -21.5068,1.1828 l -52.28385,0 c -3.34322,0 -6.15507,-0.8095 -8.43518,-2.4267 -2.27947,-1.6183 -3.419577,-4.2509 -3.419577,-7.9014 l 0,-140.37028 c 0,-3.64952 1.140107,-6.28344 3.419577,-7.90177 2.28011,-1.61705 5.09196,-2.42622 8.43518,-2.42622 l 49.39651,0 c 12.05632,0 22.26663,0.83083 30.62471,2.48866 8.35932,1.66038 15.40079,4.16942 21.12564,7.5284 5.7236,3.36027 10.10817,7.61251 13.14747,12.75548 3.04055,5.14424 4.5602,11.19958 4.5602,18.16859 0,3.89927 -0.60786,7.57045 -1.82483,11.01226 -1.21572,3.44309 -2.98948,6.57653 -5.31878,9.39521 -2.33179,2.82253 -5.19297,5.3099 -8.58727,7.46725 -3.39555,2.15734 -7.2719,3.89928 -11.62782,5.22579 5.57164,0.83083 10.71603,2.28222 15.42695,4.35546 4.71092,2.07579 8.81522,4.7505 12.31166,8.02665 3.49644,3.27744 6.25424,7.11427 8.28335,11.5105 2.02412,4.3988 3.0393,9.33406 3.0393,14.80961"
       inkscape:export-xdpi="90"
       inkscape:export-ydpi="90" />
    <path
       inkscape:connector-curvature="0"
       id="path3394"
       style="fill:#040606;fill-opacity:1;fill-rule:nonzero;stroke:none"
       d="m 197.88449,976.8629 0.62281,0 c 0.001,-3.82027 -0.77851,-7.26973 -2.35172,-10.31397 -1.56948,-3.04296 -3.8801,-5.59661 -6.89449,-7.63799 -3.01937,-2.04648 -6.83842,-3.60236 -11.45094,-4.69442 -4.62871,-1.09332 -10.59645,-1.63362 -17.92192,-1.63362 l -24.3331,0 0,47.06766 29.50116,0 c 5.60527,0 10.33861,-0.4779 14.20625,-1.44856 3.85767,-0.96704 7.21585,-2.40468 10.0708,-4.31736 2.85993,-1.91523 5.11325,-4.31341 6.73504,-7.18181 1.62927,-2.8824 2.44016,-6.17639 2.43892,-9.83993 l -1.24562,0 c -9.9e-4,3.47367 -0.76107,6.52555 -2.27075,9.20152 -1.52339,2.69127 -3.62724,4.93654 -6.33894,6.75493 -2.72043,1.82093 -5.94283,3.20607 -9.68591,4.14521 -3.73062,0.93787 -8.37427,1.41317 -13.90979,1.41176 l -28.25554,0 0,-44.51914 23.08748,0 c 7.26443,-0.001 13.1537,0.53902 17.64166,1.60049 4.50663,1.06656 8.18618,2.57912 11.04362,4.51474 2.86118,1.94072 5.00987,4.32489 6.48094,7.17161 1.46858,2.84546 2.20723,6.07319 2.20723,9.71888 l 0.62281,0 z m -10.18415,-68.93945 0.62281,0 c 9.9e-4,-3.31565 -0.62281,-6.32166 -1.88337,-8.98872 l 0.007,0.0165 -0.007,-0.0165 c -1.26306,-2.67215 -3.16885,-4.90085 -5.6825,-6.65679 l 0.0125,0.009 -0.0125,-0.009 c -2.51116,-1.75468 -5.64762,-3.0863 -9.39942,-4.01269 -3.7767,-0.9315 -8.75543,-1.38641 -14.96482,-1.38769 l -20.83791,0 0,43.087 22.96542,0 c 5.81453,-0.001 10.47687,-0.56068 14.0194,-1.71007 3.50392,-1.14048 6.44357,-2.70912 8.79778,-4.72246 2.3455,-2.00571 4.1068,-4.37203 5.26273,-7.07859 l 0.009,-0.0217 -0.009,0.0217 c 1.14846,-2.69254 1.72393,-5.54308 1.72269,-8.52999 l -1.24562,0 c 0,2.82125 -0.53935,5.48575 -1.6193,8.02028 l -0.009,0.0229 0.01,-0.0229 c -1.07871,2.52052 -2.70922,4.71736 -4.92143,6.61093 -2.20599,1.88592 -4.99367,3.38574 -8.37552,4.48545 -3.35071,1.09077 -7.90592,1.65145 -13.64198,1.65018 l -21.7198,0 0,-40.53845 19.59229,0 c 6.14836,0 11.04736,0.45746 14.6721,1.35072 3.64343,0.90091 6.63664,2.18283 8.98961,3.82793 l 0.0125,0.007 -0.0125,-0.007 c 2.35048,1.64508 4.09309,3.69029 5.26397,6.15982 l 0.006,0.0153 -0.007,-0.0153 c 1.17087,2.4772 1.76005,5.27805 1.76005,8.43314 l 0.62281,0 z m 51.67685,67.82064 -0.62281,0 c 0,5.6514 -0.9504,10.74721 -2.83875,15.30529 -1.89708,4.57719 -4.51162,8.61403 -7.85236,12.12482 -3.34697,3.5167 -7.34415,6.5472 -12.00525,9.0907 -4.66856,2.5486 -9.82168,4.6486 -15.45684,6.2962 -5.64139,1.6501 -11.66145,2.8671 -18.06516,3.6505 -6.4062,0.7851 -13.54981,1.1778 -21.43207,1.1778 l -52.28384,0 c -3.24731,-10e-4 -5.91854,-0.7815 -8.07993,-2.3131 -1.04906,-0.7451 -1.822205,-1.7063 -2.350097,-2.9228 -0.527025,-1.2161 -0.801927,-2.6964 -0.801927,-4.455 l 0,-140.37028 c 0,-1.75722 0.274902,-3.23793 0.801927,-4.45486 0.527892,-1.21693 1.301037,-2.17773 2.350097,-2.92318 l 0,0 c 2.16139,-1.53168 4.83262,-2.31154 8.07993,-2.31281 l 49.39651,0 c 12.02891,0 22.20185,0.82828 30.50637,2.47719 l -0.0149,-0.002 0.0149,0.002 c 8.30825,1.65019 15.28495,4.14011 20.93506,7.45577 l 0,0 c 5.64513,3.31566 9.9425,7.4889 12.92326,12.53248 2.97453,5.03337 4.46927,10.96384 4.47052,17.83855 0,3.83173 -0.59665,7.42646 -1.78746,10.79691 -1.19206,3.37173 -2.92595,6.43635 -5.20917,9.20025 -2.2857,2.76518 -5.09456,5.2105 -8.43904,7.33599 -3.34448,2.12421 -7.16727,3.84448 -11.4771,5.15699 l 0.0872,1.24114 c 5.52306,0.82318 10.61389,2.26183 15.27125,4.31086 4.65237,2.04904 8.69439,4.6855 12.13603,7.91069 3.4379,3.22391 6.14587,6.98811 8.14134,11.31299 l -0.007,-0.0178 0.007,0.0166 c 1.98053,4.30578 2.97827,9.14292 2.97951,14.53819 l 1.24562,0 c 0,-5.55582 -1.03137,-10.59048 -3.09785,-15.07975 l 0.007,0.0166 -0.009,-0.0178 c -2.06149,-4.46887 -4.8716,-8.37708 -8.42534,-11.70802 -3.55125,-3.3284 -7.71659,-6.04261 -12.48605,-8.14261 -4.76573,-2.09745 -9.96368,-3.56286 -15.5839,-4.40006 l -0.0897,0.62949 0.17812,0.61166 c 4.402,-1.34054 8.32943,-3.10541 11.77854,-5.29589 3.44288,-2.18792 6.35638,-4.7199 8.73426,-7.59594 2.37539,-2.87603 4.18776,-6.07828 5.42963,-9.59145 1.24188,-3.51317 1.86095,-7.26081 1.86095,-11.22889 0.001,-7.06203 -1.54456,-13.24353 -4.64988,-18.49862 -3.09784,-5.24237 -7.5696,-9.57361 -13.37044,-12.9772 l 0,0 c -5.80083,-3.40486 -12.90707,-5.93174 -21.31622,-7.60232 l 0,0 c -8.41413,-1.66929 -18.65932,-2.50012 -30.74428,-2.50012 l -49.3965,0 0,0 c -3.43903,-0.001 -6.39101,0.8372 -8.78981,2.53962 l -5e-4,0 c -1.231043,0.87288 -2.167247,2.03757 -2.778845,3.45584 -0.613092,1.41699 -0.907924,3.07864 -0.908422,4.96966 l 0,140.37018 c 4.98e-4,1.892 0.29533,3.554 0.908422,4.9707 0.611598,1.4172 1.547802,2.5829 2.778845,3.4545 2.3993,1.7038 5.35128,2.541 8.79031,2.5401 l 52.28384,0 c 7.92336,0 15.1143,-0.3937 21.58029,-1.1867 6.4635,-0.7915 12.54833,-2.0209 18.25948,-3.6914 5.71114,-1.6695 10.94647,-3.8014 15.70098,-6.3968 4.76199,-2.5983 8.86754,-5.7079 12.31042,-9.3266 3.44786,-3.6212 6.15334,-7.79849 8.10771,-12.51457 1.9606,-4.73266 2.93716,-10.00687 2.93716,-15.80354 l -0.62281,0"
       inkscape:export-xdpi="90"
       inkscape:export-ydpi="90" />
    <path
       inkscape:connector-curvature="0"
       id="path3396"
       style="fill:#2d89ef;fill-opacity:1;fill-rule:nonzero;stroke:none"
       d="m 129.05302,1000.5768 c 0,8.4616 -1.92572,15.8882 -5.77542,22.2745 -3.85169,6.3894 -9.06921,11.7199 -15.6549,15.9911 -6.58769,4.2738 -14.286587,7.4874 -23.101809,9.6447 -8.815092,2.1562 -18.238553,3.2354 -28.269614,3.2354 -6.789602,0 -13.097031,-0.4575 -18.922645,-1.3699 -5.827618,-0.9124 -10.96926,-2.0109 -15.4267,-3.2976 -4.459806,-1.2848 -8.183081,-2.6327 -11.170625,-4.0433 -2.9899656,-1.4106 -5.1439936,-2.6541 -6.4596726,-3.7337 -1.3176421,-1.0782 -2.2562184,-2.6327 -2.8114042,-4.6665 -0.55857392,-2.0324 -0.83640598,-4.9567 -0.83640598,-8.7731 0,-2.5714 0.0997489,-4.7288 0.30410957,-6.471 0.20191931,-1.7417 0.53229641,-3.1522 0.98773331,-4.2304 0.4559152,-1.0782 1.0641244,-1.8461 1.8241392,-2.3026 0.7595366,-0.4551 1.6455878,-0.6846 2.6595886,-0.6846 1.4178593,0 3.4200818,0.6846 6.0037671,2.0535 2.583726,1.3682 5.901049,2.8835 9.955163,4.5425 4.051241,1.6591 8.890577,3.1727 14.514412,4.5416 5.623207,1.3682 12.133043,2.0527 19.530873,2.0527 4.863262,0 9.218433,-0.4768 13.070125,-1.431 3.850198,-0.9532 7.117567,-2.3012 9.803364,-4.0434 2.683434,-1.7431 4.735332,-3.8989 6.155593,-6.4719 1.417879,-2.5704 2.127381,-5.4322 2.127381,-8.586 0,-3.6495 -1.215471,-6.7819 -3.647411,-9.39531 -2.431322,-2.61353 -5.599919,-4.93525 -9.498815,-6.96899 -3.901767,-2.03248 -8.335411,-3.93879 -13.299319,-5.72404 -4.965392,-1.78271 -10.083128,-3.67118 -15.350219,-5.6616 -5.269571,-1.99168 -10.387308,-4.25097 -15.350837,-6.78167 -4.965402,-2.53071 -9.399548,-5.55838 -13.299322,-9.0843 -3.901766,-3.52591 -7.067443,-7.69405 -9.498825,-12.50699 -2.4318601,-4.81038 -3.6478002,-10.57774 -3.6478002,-17.29698 0,-7.71572 1.7482364,-14.49741 5.2437427,-20.34631 3.4960245,-5.84892 8.2069425,-10.70136 14.1348315,-14.55985 5.927386,-3.85722 12.918897,-6.73963 20.974044,-8.64849 8.055147,-1.90759 16.589985,-2.86202 25.609986,-2.86202 4.659469,0 9.320692,0.29181 13.982533,0.87161 4.659469,0.58106 9.017629,1.36856 13.071241,2.36377 4.051107,0.99521 7.648827,2.11529 10.791137,3.36025 3.13933,1.2437 5.21688,2.28223 6.23144,3.11051 1.01156,0.83083 1.69515,1.5355 2.0514,2.11529 0.35413,0.58234 0.65831,1.34946 0.91229,2.30261 0.25112,0.95443 0.42962,2.15735 0.53176,3.60875 0.0998,1.45267 0.15183,3.25704 0.15183,5.4131 0,2.40711 -0.0758,4.4383 -0.22818,6.0974 -0.15185,1.66038 -0.40534,3.02895 -0.75958,4.10699 -0.35613,1.07931 -0.8621,1.86681 -1.52003,2.36377 -0.66018,0.49824 -1.54581,0.74673 -2.65951,0.74673 -1.1157,0 -2.88784,-0.5798 -5.31965,-1.74193 -2.43194,-1.16086 -5.42192,-2.42623 -8.967057,-3.79479 -3.54852,-1.36857 -7.651697,-2.61353 -12.311047,-3.73362 -4.66184,-1.12008 -9.779078,-1.67949 -15.350348,-1.67949 -4.357652,0 -8.157786,0.43453 -11.399246,1.30613 -3.243962,0.8716 -5.953674,2.07451 -8.131628,3.60874 -2.179827,1.53549 -3.799626,3.38192 -4.863262,5.53799 -1.064124,2.15734 -1.595883,4.43829 -1.595883,6.84412 0,3.56796 1.189693,6.65807 3.571429,9.27034 2.379754,2.61353 5.571639,4.9378 9.575675,6.969 4.001535,2.03374 8.534839,3.94132 13.602491,5.72403 5.065181,1.78525 10.232981,3.67118 15.502563,5.66287 5.267081,1.99041 10.434891,4.25097 15.503053,6.78168 5.06517,2.53071 9.57467,5.55838 13.52664,9.08429 3.95183,3.52591 7.14323,7.67368 9.57567,12.44328 2.43144,4.77215 3.64716,10.39169 3.64716,16.86213"
       inkscape:export-xdpi="90"
       inkscape:export-ydpi="90" />
    <path
       inkscape:connector-curvature="0"
       id="path3398"
       style="fill:#040606;fill-opacity:1;fill-rule:nonzero;stroke:none"
       d="m 129.05302,1000.5768 -0.62281,0 c -9.9e-4,8.3644 -1.89956,15.6612 -5.68299,21.941 -3.80162,6.3036 -8.94465,11.56 -15.45834,15.7865 -6.52093,4.2311 -14.154308,7.4201 -22.91248,9.5625 -8.763653,2.1445 -18.137279,3.2186 -28.125123,3.2186 -6.76182,0 -13.038606,-0.455 -18.828227,-1.3619 -5.808176,-0.9099 -10.925424,-2.0035 -15.351714,-3.2812 l -0.04285,-0.012 0.04235,0.012 c -4.437514,-1.2783 -8.133006,-2.6177 -11.078718,-4.0089 l -4.88e-4,0 c -2.9651532,-1.3984 -5.0895057,-2.6328 -6.3302584,-3.6522 l -4.883e-4,-10e-4 c -1.1993883,-0.981 -2.0703427,-2.4018 -2.6007059,-4.34 l -4.982e-4,0 c -0.533273,-1.9342 -0.814513,-4.8178 -0.8130482,-8.6013 0,-2.5536 0.099749,-4.6893 0.299735,-6.3942 l 0,0 c 0.1965681,-1.7009 0.5196409,-3.0567 0.9410078,-4.0533 l -0.00199,0 0.00199,0 c 0.4208785,-0.9915 0.9497868,-1.6336 1.5677317,-2.006 l -4.882e-4,0 c 0.6549247,-0.3907 1.4212673,-0.5949 2.3447766,-0.5964 1.2261442,-0.01 3.1792295,0.6313 5.7171761,1.9817 2.610492,1.3828 5.943878,2.9039 10.01019,4.5685 l -0.01853,-0.01 0.01853,0.01 c 4.088618,1.6754 8.955727,3.1956 14.601484,4.5704 5.683495,1.3829 12.240037,2.0697 19.675365,2.0697 4.902624,0 9.306493,-0.4794 13.217108,-1.4489 3.901268,-0.9657 7.23329,-2.3371 9.989707,-4.125 2.758919,-1.79 4.891533,-4.0265 6.364847,-6.696 1.472317,-2.6684 2.208974,-5.6492 2.207609,-8.8996 0.006,-3.7948 -1.283113,-7.11685 -3.819187,-9.83489 -2.491231,-2.67724 -5.719119,-5.03719 -9.667093,-7.09641 -3.931541,-2.04777 -8.390347,-3.96555 -13.3753,-5.75845 -4.962533,-1.78143 -10.07728,-3.66863 -15.3415,-5.65777 -5.248646,-1.98404 -10.345455,-4.23441 -15.288437,-6.75493 l -4.98e-4,0 c -4.920182,-2.50649 -9.30711,-5.50357 -13.164168,-8.99127 l 0,0 c -3.844338,-3.47366 -6.96033,-7.57681 -9.3581403,-12.32221 -2.3768837,-4.7008 -3.5777368,-10.36111 -3.5782251,-17.0039 9.965e-4,-7.61888 1.7219689,-14.27186 5.1522647,-20.01373 3.4463687,-5.76481 8.0837957,-10.54461 13.9378247,-14.35469 5.858748,-3.81262 12.782128,-6.66955 20.780356,-8.56566 8.004943,-1.89612 16.492199,-2.84545 25.469351,-2.84545 4.634058,0 9.27012,0.28926 13.907666,0.8665 4.638424,0.57852 8.972797,1.3622 13.00062,2.35231 4.029686,0.98883 7.601116,2.10255 10.711296,3.3335 3.11254,1.22968 5.17216,2.27458 6.06801,3.01493 l -0.001,0 c 0.98379,0.80279 1.62852,1.4858 1.91415,1.95728 l -10e-4,-0.002 0,0 c 0.30903,0.50589 0.59702,1.21948 0.83991,2.13313 l -5e-4,-0.004 0,0.001 c 0.23692,0.89837 0.41205,2.06561 0.51183,3.48897 l 0,-0.001 c 0.0983,1.43101 0.15034,3.22263 0.15034,5.36851 0,2.39309 -0.0758,4.40771 -0.2252,6.03751 -0.14848,1.62724 -0.3976,2.95376 -0.72993,3.96426 l 4.9e-4,-0.001 c -0.32983,0.99776 -0.77601,1.66038 -1.30054,2.05668 l 0.001,-0.001 c -0.52216,0.39375 -1.26319,0.62184 -2.29031,0.62184 -0.91715,0.0115 -2.665,-0.53137 -5.05646,-1.68203 -2.45187,-1.16979 -5.45442,-2.44152 -9.010284,-3.81391 -3.580148,-1.38131 -7.708736,-2.63264 -12.388514,-3.75783 -4.715781,-1.13282 -9.880721,-1.69605 -15.492847,-1.69605 -4.398518,0 -8.249712,0.43835 -11.557439,1.32652 -3.297523,0.88561 -6.074867,2.11401 -8.326691,3.70048 -2.252821,1.58647 -3.952339,3.51573 -5.066168,5.77501 -1.106356,2.24399 -1.663525,4.6307 -1.662528,7.13211 -0.005,3.71322 1.256328,6.98938 3.73872,9.70486 2.444147,2.68361 5.699688,5.04739 9.754286,7.10535 l -0.009,-0.004 0.008,0.004 c 4.030313,2.04775 8.5884,3.96553 13.677487,5.75588 5.060308,1.78271 10.223763,3.66736 15.489349,5.65778 5.247161,1.98276 10.396037,4.23568 15.445139,6.75619 5.01996,2.50905 9.48275,5.50613 13.39036,8.99255 3.89504,3.47494 7.03537,7.55644 9.43243,12.2585 2.37788,4.66512 3.5774,10.17634 3.5774,16.56659 l 1.24562,0 c 0,-6.5508 -1.23192,-12.27993 -3.71816,-17.15658 -2.46656,-4.83842 -5.70903,-9.05243 -9.71829,-12.62931 -3.99568,-3.56415 -8.55239,-6.6224 -13.66291,-9.17604 -5.086095,-2.53963 -10.273336,-4.80911 -15.559978,-6.80844 -5.273937,-1.99169 -10.446111,-3.88017 -15.515637,-5.66543 -5.046736,-1.77633 -9.555745,-3.67499 -13.528631,-5.69345 l 0,0 c -3.953335,-2.0057 -7.081454,-4.2892 -9.397054,-6.83137 -2.28109,-2.5116 -3.398657,-5.41439 -3.404018,-8.83708 4.98e-4,-2.30899 0.507962,-4.48418 1.529247,-6.55741 1.013553,-2.05413 2.553512,-3.81518 4.660347,-5.29971 2.103964,-1.48198 4.746044,-2.66068 7.936434,-3.51699 3.174825,-0.85376 6.923879,-1.28574 11.241183,-1.28574 5.530413,0 10.599939,0.55558 15.208219,1.66292 4.637925,1.11499 8.716818,2.35231 12.23332,3.70941 3.534428,1.36347 6.511698,2.62501 8.923208,3.77568 2.47318,1.1736 4.26811,1.79162 5.58335,1.80182 1.20077,0.001 2.2304,-0.26888 3.02934,-0.87033 l 0.001,-0.001 c 0.79021,-0.59891 1.3566,-1.51256 1.7395,-2.67215 l 5e-4,-0.001 c 0.37505,-1.1443 0.63352,-2.5562 0.78922,-4.2497 0.15471,-1.68714 0.23056,-3.73617 0.23056,-6.15729 0,-2.16754 -0.0526,-3.98465 -0.15321,-5.45771 l -5e-4,-0.001 c -0.10413,-1.47815 -0.28561,-2.71803 -0.55131,-3.72853 l -5e-4,-0.002 c -0.26568,-0.99265 -0.5858,-1.81456 -0.98428,-2.47081 l -0.001,-0.002 0,0 c -0.42724,-0.6881 -1.1502,-1.41699 -2.18904,-2.2733 l -0.004,-0.002 0.002,0.002 c -1.13326,-0.91875 -3.22888,-1.94836 -6.39548,-3.20735 -3.17383,-1.2577 -6.79733,-2.38544 -10.870353,-3.38574 -4.079889,-1.00158 -8.460968,-1.79417 -13.141244,-2.37651 -4.686634,-0.58362 -9.373257,-0.8767 -14.058018,-0.8767 -9.06273,0 -17.64539,0.95952 -25.750611,2.87858 -8.111578,1.92287 -15.171229,4.8295 -21.167742,8.73131 -6.00126,3.90565 -10.786218,8.83199 -14.3318375,14.76501 -3.5607168,5.95594 -5.3361973,12.86633 -5.3352207,20.6789 0,6.79697 1.2305386,12.6701 3.7173852,17.59006 l 0,0 c 2.4649537,4.8792 5.680685,9.1136 9.639879,12.69049 l -0.009,-0.007 0.008,0.007 c 3.943121,3.56541 8.423475,6.62494 13.434218,9.17732 l 0,0 c 4.983957,2.54217 10.122121,4.81037 15.4125,6.8097 5.27007,1.9917 10.391174,3.88144 15.360054,5.66542 4.941985,1.77634 9.350836,3.67373 13.222957,5.69091 3.850198,2.00698 6.958387,4.29047 9.330408,6.84029 2.327308,2.50918 3.470285,5.45139 3.475646,8.95569 -9.96e-4,3.0558 -0.684221,5.799 -2.047044,8.274 -1.367318,2.4743 -3.33838,4.5515 -5.946818,6.2449 -2.615295,1.6974 -5.817902,3.0238 -9.616033,3.9631 -3.793398,0.9403 -8.100487,1.4142 -12.92376,1.4131 -7.360343,0 -13.822965,-0.6804 -19.386881,-2.0348 -5.601413,-1.3639 -10.413097,-2.8701 -14.42672,-4.5146 l 0.01893,0.01 -0.01943,-0.01 c -4.04103,-1.6531 -7.342788,-3.1618 -9.900286,-4.5163 -2.628897,-1.3862 -4.6802561,-2.1165 -6.2898306,-2.1245 -1.1045122,-8e-4 -2.1102521,0.2525 -2.9743905,0.7726 l 0.00698,0 -0.00797,0 c -0.9011281,0.5416 -1.5886481,1.4346 -2.0800784,2.5984 l 0.00199,0 -0.00199,0 c -0.48949699,1.1617 -0.82716843,2.6261 -1.03444883,4.4086 l 0,-0 C 0.0997489,1021.0738 0,1023.2531 0,1025.8409 l 0,0 c 9.9649247e-4,3.8497 0.27587894,6.8149 0.85976374,8.9454 l -4.8828e-4,-10e-4 c 0.57999844,2.1289 1.58572844,3.8197 3.02257094,4.9935 l -0.00498,0 0.00399,0 c 1.3906052,1.1379 3.5733622,2.3918 6.5881396,3.8149 l -4.88e-4,0 c 3.029347,1.4301 6.780773,2.7869 11.263119,4.0792 l 0.04624,0.012 -0.04624,-0.012 c 4.488581,1.2946 9.654029,2.3966 15.501069,3.314 5.861737,0.918 12.200186,1.3763 19.017062,1.3763 10.074907,0 19.547445,-1.0842 28.414614,-3.2534 8.871145,-2.1696 16.636308,-5.4091 23.290138,-9.7262 6.65819,-4.3171 11.94907,-9.7203 15.85146,-16.1932 3.91522,-6.4953 5.86959,-14.0504 5.86834,-22.61 l -0.62281,0"
       inkscape:export-xdpi="90"
       inkscape:export-ydpi="90" />
  </g>
</svg>
