<?xml version="1.0" encoding="UTF-8"?>
<svg xmlns="http://www.w3.org/2000/svg" xmlns:xlink="http://www.w3.org/1999/xlink" width="204pt" height="107pt" viewBox="0 0 204 107" version="1.1">
<g id="surface1">
<path style=" stroke:none;fill-rule:nonzero;fill:rgb(19.9%,22.3%,55.1%);fill-opacity:1;" d="M 54.816406 17.917969 L 0.199219 17.917969 L 0.199219 30.644531 L 17.269531 30.644531 L 17.269531 88.78125 L 33.6875 88.78125 L 33.6875 30.644531 L 51.167969 30.644531 L 54.816406 17.917969 "/>
<path style=" stroke:none;fill-rule:nonzero;fill:rgb(19.9%,22.3%,55.1%);fill-opacity:1;" d="M 89.664062 89.007812 C 109.300781 89.007812 114.785156 78.722656 114.785156 67.601562 L 114.785156 17.917969 L 99.335938 17.917969 L 99.335938 64.058594 C 99.335938 71.882812 96.457031 75.882812 89.664062 75.882812 C 82.871094 75.882812 79.992188 71.882812 79.992188 64.058594 L 79.992188 17.917969 L 64.542969 17.917969 L 64.542969 67.601562 C 64.542969 78.722656 70.027344 89.007812 89.664062 89.007812 "/>
<path style=" stroke:none;fill-rule:nonzero;fill:rgb(19.9%,22.3%,55.1%);fill-opacity:1;" d="M 202.539062 65.011719 C 202.539062 50.285156 197.046875 40.480469 182.984375 40.480469 C 169.730469 40.480469 162.6875 50.703125 162.6875 65.011719 C 162.6875 73.804688 166.367188 89.011719 185.359375 89.011719 C 193.058594 89.011719 199.113281 84.945312 202.003906 82.59375 L 197.289062 75.324219 C 197.289062 75.324219 192.59375 79.972656 185.40625 79.972656 C 178.664062 79.972656 175.792969 75.089844 175.792969 68.335938 L 202.539062 68.335938 Z M 189.980469 59.550781 L 175.972656 59.550781 L 175.972656 59.371094 C 175.972656 56.351562 176.769531 49.34375 182.984375 49.34375 C 184.621094 49.34375 189.980469 49.269531 189.980469 58.535156 L 189.980469 59.550781 "/>
<path style=" stroke:none;fill-rule:nonzero;fill:rgb(82.3%,12.4%,38.2%);fill-opacity:1;" d="M 134.539062 106.5 L 165.023438 0.199219 L 153.683594 0.199219 L 123.203125 106.5 L 134.539062 106.5 "/>
</g>
</svg>